# xmcd
#
# Track frame offsets:
#       180
#       14118
#       32631
#       40093
#       50181
#       65096
#       75596
#       88093
#       107508
#       123108
#       148850
#       166566
#       179740
#       194431
#       210151
#       224256
#
# Disc length: 3214 seconds
#
# Revision: 1
# Processed by: cddbd v1.5.2PL0 Copyright (c) Steve Scherf et al.
# Submitted via: CD-DA_X-Tractor v0.21
#
DISCID=e30c8c10
DTITLE=החברים של בני - החברים של בני
DYEAR=1900
DGENRE=
TTITLE0=אני גיטרה
TTITLE1=חמישה פחות אחד
TTITLE2=החליל
TTITLE3=שיירת הרוכבים
TTITLE4=שי
TTITLE5=בשדות בית לחם
TTITLE6=דרך הטבק
TTITLE7=צל ומי באר
TTITLE8=צרות טובות
TTITLE9=מחרוזת שירי גשר הירקון
TTITLE10=שיר אהבה ישן
TTITLE11=כיבוי אורות
TTITLE12=תלבשי לבן
TTITLE13=געגועים לפריז
TTITLE14=אני גיטרה
TTITLE15=דרך הטבק
EXTD=
EXTT0=
EXTT1=
EXTT2=
EXTT3=
EXTT4=
EXTT5=
EXTT6=
EXTT7=
EXTT8=
EXTT9=
EXTT10=
EXTT11=
EXTT12=
EXTT13=
EXTT14=
EXTT15=
PLAYORDER=
